<?xml version="1.0" encoding="utf-8"?>
<!-- Generator: Adobe Illustrator 19.0.0, SVG Export Plug-In . SVG Version: 6.00 Build 0)  -->
<svg version="1.1" id="Layer_1" xmlns="http://www.w3.org/2000/svg" xmlns:xlink="http://www.w3.org/1999/xlink" x="0px" y="0px"
	 viewBox="0 0 1024 1024" style="enable-background:new 0 0 1024 1024;" xml:space="preserve">
<style type="text/css">
	.st0{clip-path:url(#XMLID_2_);fill:#53B848;}
	.st1{clip-path:url(#XMLID_2_);}
	.st2{fill:#BD5F46;}
	.st3{fill:#DE8458;}
	.st4{fill:#DB7963;}
	.st5{fill:#C04040;}
	.st6{fill:#E06969;}
	.st7{fill:#C66A46;}
	.st8{fill:#23150E;}
	.st9{fill:#38221E;}
	.st10{fill:#C05437;}
	.st11{fill:none;}
	.st12{fill:#A43A26;}
	.st13{fill:#E8988B;}
	.st14{fill:#96D5DF;}
	.st15{fill:#D16161;}
</style>
<g id="XMLID_157_">
	<defs>
		<circle id="XMLID_313_" cx="514.2" cy="513.3" r="508"/>
	</defs>
	<clipPath id="XMLID_2_">
		<use xlink:href="#XMLID_313_"  style="overflow:visible;"/>
	</clipPath>
	<rect id="XMLID_314_" x="-42.2" y="-21.1" class="st0" width="1095.8" height="1095.8"/>
	<g id="XMLID_107_" class="st1">
		<g id="XMLID_262_">
			<path id="XMLID_268_" class="st2" d="M442.2,662.9v96.2c0,0,71.7,83.1,141.8,13v-97.8C584,674.3,442.2,620.5,442.2,662.9z"/>
			<path id="XMLID_267_" class="st3" d="M573.7,771.9v-56.5c-27.8-4.7-57.2,1.8-68.7,43.5c-2.6,9.5-3.7,17.7-3.6,24.8
				C520.4,793.6,547.2,798.3,573.7,771.9z"/>
			<path id="XMLID_266_" class="st4" d="M443.6,753.7c0,0,55.4,76.6,143.5,16.3c0,0,161.4,0,161.4,182.6s-436.9,148.3-436.9,0
				s104.3-172.8,104.3-172.8L443.6,753.7z"/>
			<path id="XMLID_265_" class="st5" d="M604.9,771.8c-9.6-1.3-15.6-1.3-15.6-1.3c-88,60.3-143.5-16.3-143.5-16.3l-23.3,22
				c0,0.7,0,1.3,0,2C422.4,778.1,534.8,862.7,604.9,771.8z"/>
			<path id="XMLID_263_" class="st6" d="M604.9,772.9c-9.6-1.3-15.6-1.3-15.6-1.3c-47.7,32.7-85.8,25.2-110.8,11.4
				c-5.4,6.5-8.8,13.6-9.7,21.1C507.8,819.1,563.6,826.4,604.9,772.9z"/>
		</g>
		<g id="XMLID_147_">
			<g id="XMLID_261_">
				<path id="XMLID_31_" class="st3" d="M554.7,761.7h-12.2c-91.2,0-165.9-74.6-165.9-165.9v-91c0-91.2,74.6-165.9,165.9-165.9h12.2
					c91.2,0,165.9,74.6,165.9,165.9v91C720.5,687,645.9,761.7,554.7,761.7z"/>
			</g>
			<path id="XMLID_273_" class="st7" d="M674.2,394.9c10.9,3.6,0.9,10-25.4,4.5c-26.3-5.4-53.5,20-36.3,14.5s15.4,0,15.4,0
				s-4.5,9.1-42.6,20.9c-38.1,11.8-74.4-29-82.5-29.9c-8.2-0.9-5.4,16.3-5.4,16.3s13.6-16.3,11.8,0c-1.8,16.3-62.6,21.8-68.9,22.7
				c-5.7,0.8-47.5,8.3-33.9,17.7c8.9-0.1,18-0.2,26.3-0.4c-1.4-0.9-2.3-1.3-2.3-1.3s19-10.9,51.7-4.1c2.8,0.6,5.4,1,7.7,1.2
				c-0.3,0.4-0.5,0.7-0.5,0.7s92.5,31.3,142.9,8.2c50.3-23.1,0-12.2,0-12.2s42-10.5,51.5-20.7c0.8,0.5,1.5,1,2.2,1.6l20.2-29.8
				C690.9,387.9,663.7,391.4,674.2,394.9z"/>
			<g id="XMLID_259_">
				<path id="XMLID_28_" class="st7" d="M557.2,742.9H545c-91.2,0-165.9-74.6-165.9-165.9v-91c0-6,0.3-11.9,1-17.8
					c-2.7,11.8-4.1,24-4.1,36.5v91c0,91.2,74.6,165.9,165.9,165.9H554c85.2,0,156-65.1,164.9-148.1
					C702.2,687.4,635.8,742.9,557.2,742.9z"/>
			</g>
			<path id="XMLID_260_" class="st8" d="M738.7,439.9c0,0-43-22.9-25.9-25.9c17.2-3,16.3-13.6,16.3-13.6s-51.7-12.2-38.1-25.9
				c13.6-13.6-4.1-19-4.1-19s-16.3-1.4-8.2-24.5s-8.2-13.6-8.2-13.6l-24.5,27.2c0,0,9.5-16.3,6.8-54.4
				c-2.7-38.1-16.3-13.6-16.3-13.6l-15,12.2c-9.5-25.9-74.8-64-61.2-42.2c13.6,21.8-8.2,21.8-9.5,16.3c-1.4-5.4-31.3-16.3-31.3-16.3
				s24.5,5.4-6.8-4.1c-31.3-9.5,2.7,21.8,2.7,21.8c-35.4-20.4-57.1-1.4-57.1-1.4l20.4,5.4c0,0-53.1,46.3-129.3,62.6
				c-76.2,16.3-31.3,27.2-31.3,27.2c-50.3,16.3-32.7,21.8-32.7,21.8c-50.3,27.2,5.4,25.9,5.4,25.9c-38.1,27.2-15,27.2-15,27.2
				l25.9,5.4c-21.8,15-43.5,39.5-38.1,39.5s40.8-8.2,40.8-8.2s-38.1,27.2-24.5,32.7c13.6,5.4,27.2-6.8,27.2-6.8
				c-5.4,72.1,15,57.1,15,57.1c4.1,51.7,17.7,28.6,17.7,28.6c13.6,38.1,43.5,70.8,43.5,70.8s6.8-57.1,19-72.1
				c6-7.4,5.8-22.4,4.5-33.1c4.3,9.8,12-9.6,30.9-40.4c21.8-35.4-17.7-55.8-17.7-55.8s19-10.9,51.7-4.1c2.8,0.6,5.4,1,7.7,1.2
				c-0.3,0.4-0.5,0.7-0.5,0.7s92.5,31.3,142.9,8.2c50.3-23.1,0-12.2,0-12.2s42-10.5,51.5-20.7c16.8,11.4,23.7,26.5,32.5,39.3
				c15,21.8,13.6,64,17.7,42.2c3.4-18.1-0.7-37.1,4.8-43c1.1-1.2,2.6-1.9,4.7-1.9C745.5,460.3,738.7,439.9,738.7,439.9z"/>
			<path id="XMLID_146_" class="st8" d="M699.6,424.8c0,0,12.7-8.2-1.8-27.2c-14.5-19-44.5-15.4-33.6-11.8c10.9,3.6,0.9,10-25.4,4.5
				c-26.3-5.4-53.5,20-36.3,14.5c17.2-5.4,15.4,0,15.4,0s-4.5,9.1-42.6,20.9c-38.1,11.8-74.4-29-82.5-29.9
				c-8.2-0.9-5.4,16.3-5.4,16.3s13.6-16.3,11.8,0c-1.8,16.3-62.6,21.8-68.9,22.7c-6.4,0.9-57.2,10-27.2,20.9
				c29.9,10.9,11.8,14.5,11.8,14.5h-24.5c32.7,23.6,7.3,12.7,7.3,12.7l-20.9-5.4c2.7,34.5-14.5,15.4-14.5,15.4
				c-0.9,28.1-18.1,11.8-18.1,11.8c-3.6,17.2-25.4,25.4-24.5,10.9c0.9-14.5-12.1-19.9-12.1-19.9c-5.4,72.1,15,57.1,15,57.1
				c4.1,51.7,17.7,28.6,17.7,28.6c13.6,38.1,43.5,70.8,43.5,70.8s6.8-57.1,19-72.1c6-7.4,5.8-22.4,4.5-33.1
				c4.3,9.8,12-9.6,30.9-40.4c21.8-35.4-17.7-55.8-17.7-55.8s19-10.9,51.7-4.1c2.8,0.6,5.4,1,7.7,1.2c-0.3,0.4-0.5,0.7-0.5,0.7
				s92.5,31.3,142.9,8.2c50.3-23.1,0-12.2,0-12.2s42-10.5,51.5-20.7c16.8,11.4,23.7,26.5,32.5,39.3c15,21.8,13.6,64,17.7,42.2
				c3.4-18.1-0.7-37.1,4.8-43C712.4,451.4,699.6,424.8,699.6,424.8z"/>
			<path id="XMLID_182_" class="st9" d="M733.2,460.3c12.2,0,5.4-20.4,5.4-20.4s-43-22.9-25.9-25.9c17.2-3,16.3-13.6,16.3-13.6
				s-51.7-12.2-38.1-25.9c13.6-13.6-4.1-19-4.1-19s-16.3-1.4-8.2-24.5s-8.2-13.6-8.2-13.6l-24.5,27.2c0,0,9.5-16.3,6.8-54.4
				c-2.7-38.1-16.3-13.6-16.3-13.6l-15,12.2c-9.5-25.9-74.8-64-61.2-42.2c13.6,21.8-8.2,21.8-9.5,16.3c-1.4-5.4-31.3-16.3-31.3-16.3
				s24.5,5.4-6.8-4.1c-31.3-9.5,2.7,21.8,2.7,21.8c-35.4-20.4-57.1-1.4-57.1-1.4l20.4,5.4c0,0-53.1,46.3-129.3,62.6
				c-76.2,16.3-31.3,27.2-31.3,27.2c-50.3,16.3-32.7,21.8-32.7,21.8c-50.3,27.2,5.4,25.9,5.4,25.9c-38.1,27.2-15,27.2-15,27.2
				l25.9,5.4c-21.8,15-43.5,39.5-38.1,39.5s40.8-8.2,40.8-8.2s-38.1,27.2-24.5,32.7c13.6,5.4,27.2-6.8,27.2-6.8s13,5.4,12.1,19.9
				c-0.9,14.5,20.9,6.4,24.5-10.9c0,0,17.2,16.3,18.1-11.8c0,0,17.2,19.1,14.5-15.4l20.9,5.4c0,0,25.4,10.9-7.3-12.7h24.5
				c0,0,18.1-3.6-11.8-14.5c-29.9-10.9,20.9-20,27.2-20.9c6.3-0.9,67.1-6.4,68.9-22.7c1.8-16.3-11.8,0-11.8,0s-2.7-17.2,5.4-16.3
				c8.2,0.9,44.5,41.7,82.5,29.9c38.1-11.8,42.6-20.9,42.6-20.9s1.8-5.4-15.4,0c-17.2,5.4,10-20,36.3-14.5
				c26.3,5.4,36.3-0.9,25.4-4.5c-10.9-3.6,19-7.3,33.6,11.8c14.5,19.1,1.8,27.2,1.8,27.2s12.9,26.5,29,37.3
				C729.6,461,731.1,460.3,733.2,460.3z"/>
			<path id="XMLID_257_" class="st3" d="M380.5,615.9c0,0-68.3-39-4.9-102.5C375.6,513.4,398.4,576.8,380.5,615.9z"/>
			<path id="XMLID_256_" class="st7" d="M382.7,607.1c0,0-38.1-21.8-31-59.2c-17.5,43.9,27.9,69.8,27.9,69.8c2-4.4,3.5-9.2,4.6-14.1
				C383.7,604.8,383.2,606,382.7,607.1z"/>
			<path id="XMLID_255_" class="st10" d="M568.6,617.7"/>
			<path id="XMLID_187_" class="st7" d="M567.8,629.8c0,0,68.7,39.6,75.7-25.5c7-65.2-71.3-10.6-71.3-10.6S547.5,607.7,567.8,629.8z
				"/>
			<polygon id="XMLID_106_" class="st8" points="620.7,505.2 703.7,517.5 655,494.3 			"/>
			<path id="XMLID_237_" class="st11" d="M694.7,410.7c0.8,1.3,1.7,2.6,2.5,3.8C697.8,412.9,694.7,410.7,694.7,410.7z"/>
			<ellipse id="XMLID_149_" class="st8" cx="634.7" cy="545.5" rx="13.2" ry="24"/>
			<path id="XMLID_130_" class="st8" d="M472,446.7"/>
			<path id="XMLID_191_" class="st10" d="M576,623.4c0,0,68.7,39.6,75.7-25.5c7-65.2-71.3-10.6-71.3-10.6S555.7,601.4,576,623.4z"/>
			<path id="XMLID_234_" class="st12" d="M579.9,588c-3.3,2.1-22.5,15.6-3.9,35.8c0,0,54.6,31.5,71.4-7.8
				c-6.4,3.1-13.6,4.8-21.2,4.8C604.8,620.9,586.6,607.1,579.9,588z"/>
			<polygon id="XMLID_136_" class="st8" points="561.3,512 478.3,524.3 527,501.1 			"/>
			<ellipse id="XMLID_148_" class="st8" cx="538.1" cy="546.9" rx="13.2" ry="24"/>
			<path id="XMLID_233_" class="st8" d="M633,670.3c0,0-44.9,8.2-76.2-4.1c-31.3-12.2-17.7,28.6,4.1,20.4
				C582.6,678.5,633,670.3,633,670.3z"/>
		</g>
		<path id="XMLID_124_" class="st13" d="M366.9,868.7c0,0-61.2,106.1-13.6,144.2C400.9,1051.1,366.9,868.7,366.9,868.7z"/>
		<g id="XMLID_108_">
			<g id="XMLID_12_">
				<path id="XMLID_16_" class="st14" d="M362.7,959.6c3.2,0,3.2-5,0-5C359.5,954.6,359.5,959.6,362.7,959.6L362.7,959.6z"/>
			</g>
		</g>
		<path id="XMLID_192_" class="st5" d="M558,936.5c53.5-3.6,78.9-7.3,78.9-7.3l1.8,87.1c0,0-33.1,42.2-70.8,4.5L558,936.5z"/>
		<path id="XMLID_236_" class="st15" d="M633,935c0,0,9.7,86.5-15.1,90.7c-24.8,4.2-23-21.8-23-21.8l3-17.5c0,0,7.9-8.5,7.9,9.1
			s12.7-41.1,12.7-41.1s4.2-10.9,3,10.9C620.3,987,633,935,633,935z"/>
	</g>
</g>
</svg>
