<?xml version="1.0" encoding="utf-8"?>
<!-- Generator: Adobe Illustrator 19.0.0, SVG Export Plug-In . SVG Version: 6.00 Build 0)  -->
<svg version="1.1" id="Layer_1" xmlns="http://www.w3.org/2000/svg" xmlns:xlink="http://www.w3.org/1999/xlink" x="0px" y="0px"
	 viewBox="0 0 1024 1024" style="enable-background:new 0 0 1024 1024;" xml:space="preserve">
<style type="text/css">
	.st0{clip-path:url(#XMLID_2_);fill:#39BDAE;}
	.st1{clip-path:url(#XMLID_2_);}
	.st2{fill:#BD5F46;}
	.st3{fill:#DE8458;}
	.st4{fill:#B6833E;}
	.st5{fill:#C6C6C5;}
	.st6{fill:#FFFFFF;}
	.st7{fill:#D1A065;}
	.st8{fill:#8E8E8B;}
	.st9{fill:#C66A46;}
	.st10{fill:#23150E;}
	.st11{fill:#C05437;}
	.st12{fill:none;}
	.st13{fill:#38221E;}
	.st14{fill:#A43A26;}
	.st15{fill:#96D5DF;}
</style>
<g id="XMLID_150_">
	<defs>
		<circle id="XMLID_158_" cx="514" cy="514.3" r="508"/>
	</defs>
	<clipPath id="XMLID_2_">
		<use xlink:href="#XMLID_158_"  style="overflow:visible;"/>
	</clipPath>
	<rect id="XMLID_312_" x="-20" y="-20.1" class="st0" width="1095.8" height="1095.8"/>
	<g id="XMLID_77_" class="st1">
		<g id="XMLID_172_">
			<path id="XMLID_178_" class="st2" d="M613.2,693.5v96.2c0,0-71.7,83.1-141.8,13v-97.8C471.3,704.9,613.2,651.1,613.2,693.5z"/>
			<path id="XMLID_177_" class="st3" d="M481.7,802.4v-56.5c27.8-4.7,57.2,1.8,68.7,43.5c2.6,9.5,3.7,17.7,3.6,24.8
				C534.9,824.2,508.1,828.9,481.7,802.4z"/>
			<path id="XMLID_176_" class="st4" d="M611.7,784.2c0,0-55.4,76.6-143.5,16.3c0,0-161.4,0-161.4,182.6s436.9,148.3,436.9,0
				S639.4,810.3,639.4,810.3L611.7,784.2z"/>
			<path id="XMLID_153_" class="st5" d="M468.3,800.5c0,0-114.9,180.1-80.8,284.9c0,0-126.5-44.9-64-187.8
				C323.5,897.7,353.2,809.5,468.3,800.5z"/>
			<path id="XMLID_168_" class="st5" d="M639.4,810.3c0,0,137.2,49.2,91.9,212.5c0,0-20,32.7-78,59.9
				C653.3,1082.6,698.1,893.6,639.4,810.3z"/>
			<path id="XMLID_142_" class="st6" d="M357.6,854c0,0,50.8-45.4,25.4,21.8s-29,139.7-20,150.6s-20,36.3-45.4-14.5
				C292.3,961.1,328.5,868.6,357.6,854z"/>
			<path id="XMLID_170_" class="st7" d="M455.7,871.4c0,0-107.5,175.5-34,201.4s111.6,5.4,111.6,5.4s-9.5-136.1-40.8-95.2
				C461.2,1023.7,455.7,871.4,455.7,871.4z"/>
			<path id="XMLID_174_" class="st8" d="M690.5,856.8c0,0,37.2,69.9,16.3,125.2c-20.9,55.3,18.1,51.7,21.8,33.6
				C732.2,997.4,748.6,884.9,690.5,856.8z"/>
		</g>
		<g id="XMLID_114_">
			<g id="XMLID_171_">
				<path id="XMLID_244_" class="st3" d="M500.7,792.2h12.2c91.2,0,165.9-74.6,165.9-165.9v-91c0-91.2-74.6-165.9-165.9-165.9h-12.2
					c-91.2,0-165.9,74.6-165.9,165.9v91C334.8,717.6,409.5,792.2,500.7,792.2z"/>
			</g>
			<path id="XMLID_251_" class="st9" d="M374.9,357.2c12.1-7,27.4-14.1,46.3-20.8c102.6,23.2,237.8,54.6,282.8,65.1
				c2.8,6.4,5.3,13.4,7.5,19.9l-70.8,149.7c-1.4-3.8-2.4-5.4-2.8-3.8c-2.7,10-8.2-2.7-42.6-40.8c-34.5-38.1,18.1-62.6,18.1-62.6
				s-21.8-51.7-83.5-14.5s-73.5,21.8-73.5,21.8s11.8-13.6,3.6-10c-8.2,3.6-61.7,5.4-87.1,20.9c-14.7,8.9-17.3,3.5-16.8-2.6l25.6-54
				L374.9,357.2z"/>
			<g id="XMLID_169_">
				<path id="XMLID_242_" class="st9" d="M498.2,773.5h12.2c91.2,0,165.9-74.6,165.9-165.9v-91c0-6-0.3-11.9-1-17.8
					c2.7,11.8,4.1,24,4.1,36.5v91c0,91.2-74.6,165.9-165.9,165.9h-12.2c-85.2,0-156-65.1-164.9-148.1
					C353.2,717.9,419.5,773.5,498.2,773.5z"/>
			</g>
			<path id="XMLID_104_" class="st10" d="M676.9,662.2c0,0,125.2-124.3,45.4-226.8c0,0-17.2-68.9-33.6-70.8c0,0-3.6,3.6-0.9,13.6
				c0,0-48.1-95.2-175.1-76.2c-127,19-172.4,65.3-172.4,77.1c0,11.8,12.7-3.6,12.7-3.6s-26.3,40.8-20,91.6c6.4,50.8,28.1-10,28.1-10
				s-10.9,27.2,14.5,11.8c25.4-15.4,78.9-17.2,87.1-20.9s-3.6,10-3.6,10s11.8,15.4,73.5-21.8s83.5,14.5,83.5,14.5
				s-52.6,24.5-18.1,62.6c34.5,38.1,39.9,50.8,42.6,40.8s26.3,102.5,29.9,85.3S676.9,662.2,676.9,662.2"/>
			<path id="XMLID_167_" class="st3" d="M674.8,646.4c0,0,68.3-39,4.9-102.5C679.7,543.9,656.9,607.4,674.8,646.4z"/>
			<path id="XMLID_166_" class="st9" d="M672.7,637.7c0,0,38.1-21.8,31-59.2c17.5,43.9-27.9,69.8-27.9,69.8c-2-4.4-3.5-9.2-4.6-14.1
				C671.6,635.3,672.1,636.5,672.7,637.7z"/>
			<path id="XMLID_165_" class="st11" d="M486.7,648.3"/>
			<path id="XMLID_164_" class="st9" d="M351.8,339.9c3.8-3.2,6.1-4.8,6.1-4.8S355.2,337.4,351.8,339.9z"/>
			<path id="XMLID_155_" class="st12" d="M360.6,441.3c-0.8,1.3-1.7,2.6-2.5,3.8C357.6,443.5,360.6,441.3,360.6,441.3z"/>
			<path id="XMLID_116_" class="st10" d="M395.3,460c0.2-0.6,0.4-1,0.4-1S395.5,459.3,395.3,460z"/>
			<path id="XMLID_140_" class="st13" d="M341.2,376.4c0-11.8,45.4-58.1,172.4-77.1c127-19.1,175.1,76.2,175.1,76.2
				c-2.7-10,0.9-13.6,0.9-13.6c16.3,1.8,33.6,70.8,33.6,70.8c29.4,37.8,31,78.5,21.3,114.9c-7.5-4.2-42.7-25.7-54.8-64.5
				c0,0,0,33.6-28.1-10.9c-28.1-44.4-9.1-35.4-9.1-35.4s-11.8-42.6-59.9-40.8c-48.1,1.8-38.1-9.1-38.1-9.1s-31.8-8.2-61.7,25.4
				s-78.9,0.9-78.9,0.9s13.6-6.4,16.3-4.5c2.7,1.8-8.2-20-47.2-0.9c-16.4,8-32.5,7.8-45.2,4.3c6.2-23.7,16.1-39.2,16.1-39.2
				S341.2,388.2,341.2,376.4z"/>
			<path id="XMLID_103_" class="st13" d="M520,524.8c0,0,58.1-1.8,64.4,35.4C584.4,560.1,579.8,539.3,520,524.8z"/>
			<path id="XMLID_97_" class="st13" d="M371.2,560.1c0,0,4.5-20.9,64.4-35.4C435.6,524.8,377.5,522.9,371.2,560.1"/>
			<path id="XMLID_117_" class="st9" d="M508.6,637.2c0,0-40.4,39.5-78.9,0.9C429.7,638.1,461,589.6,508.6,637.2z"/>
			<path id="XMLID_105_" class="st13" d="M532.9,572.1c0,0,26,19.5,11.4,35.8C529.6,624.1,532.9,572.1,532.9,572.1z"/>
			<path id="XMLID_113_" class="st13" d="M426.2,603.2c-14.6,16.3-11.4-35.8-11.4-35.8S440.9,586.9,426.2,603.2"/>
			<path id="XMLID_141_" class="st11" d="M504.5,634.5c0,0-40.4,39.5-78.9,0.9C425.6,635.4,456.9,586.9,504.5,634.5z"/>
			<path id="XMLID_152_" class="st14" d="M455.5,645.4c15.3,0,28.3-10.2,32.4-24.1c5.1,3.2,10.4,7.4,15.9,12.9
				c0,0-40.4,39.5-78.9,0.9c0,0,1-1.6,3-3.9C434.1,639.8,444.2,645.4,455.5,645.4z"/>
			<path id="XMLID_143_" class="st13" d="M528.2,713.5c0,0-27.2-2.5-41.3-9.2s-55.6,4-55.6,4L528.2,713.5z"/>
			<path id="XMLID_230_" class="st12" d="M702.4,427.8c-2.2-6.6-4.7-13.5-7.5-19.9c9.7,2.3,15.3,3.6,15.3,3.6L702.4,427.8z"/>
			<path id="XMLID_250_" class="st12" d="M365.8,363.6l-3.2-31.9c15.1,3.4,31.8,7.1,49.5,11.1C393.2,349.4,377.9,356.6,365.8,363.6z
				"/>
			<path id="XMLID_254_" class="st9" d="M349,477.7c0.2-0.6,0.4-1,0.4-1S349.3,477,349,477.7z"/>
		</g>
		<g id="XMLID_82_">
			<g id="XMLID_118_">
				<path id="XMLID_217_" class="st15" d="M692.6,990.2c3.2,0,3.2-5,0-5C689.4,985.2,689.4,990.2,692.6,990.2L692.6,990.2z"/>
			</g>
		</g>
	</g>
</g>
</svg>
