<?xml version="1.0" encoding="utf-8"?>
<!-- Generator: Adobe Illustrator 19.0.0, SVG Export Plug-In . SVG Version: 6.00 Build 0)  -->
<svg version="1.1" id="Layer_1" xmlns="http://www.w3.org/2000/svg" xmlns:xlink="http://www.w3.org/1999/xlink" x="0px" y="0px"
	 viewBox="0 0 1024 1024" style="enable-background:new 0 0 1024 1024;" xml:space="preserve">
<style type="text/css">
	.st0{clip-path:url(#XMLID_2_);fill:#2E8EC1;}
	.st1{clip-path:url(#XMLID_2_);}
	.st2{fill:#BD5F46;}
	.st3{fill:#DE8458;}
	.st4{fill:#DBA732;}
	.st5{fill:#CB7E29;}
	.st6{fill:#ECC068;}
	.st7{fill:#EA9D4F;}
	.st8{fill:#C66A46;}
	.st9{fill:#23150E;}
	.st10{fill:#2D1C11;}
	.st11{fill:#38221E;}
	.st12{fill:#C05437;}
	.st13{fill:#A43A26;}
</style>
<g id="XMLID_139_">
	<defs>
		<circle id="XMLID_118_" cx="512.2" cy="509.3" r="508"/>
	</defs>
	<clipPath id="XMLID_2_">
		<use xlink:href="#XMLID_118_"  style="overflow:visible;"/>
	</clipPath>
	<rect id="XMLID_138_" x="-19.4" y="-25.1" class="st0" width="1095.8" height="1095.8"/>
	<g id="XMLID_39_" class="st1">
		<g id="XMLID_51_">
			<path id="XMLID_60_" class="st2" d="M608.3,666.3v96.2c0,0-71.7,83.1-141.8,13v-97.8C466.5,677.7,608.3,623.9,608.3,666.3z"/>
			<path id="XMLID_57_" class="st3" d="M476.8,775.3v-56.5c27.8-4.7,57.2,1.8,68.7,43.5c2.6,9.5,3.7,17.7,3.6,24.8
				C530,797,503.3,801.7,476.8,775.3z"/>
			<path id="XMLID_56_" class="st4" d="M606.9,757.1c0,0-55.4,76.6-143.5,16.3c0,0-161.4,0-161.4,182.6s436.9,148.3,436.9,0
				S634.6,783.2,634.6,783.2L606.9,757.1z"/>
			<path id="XMLID_55_" class="st5" d="M445.6,775.2c9.6-1.3,15.6-1.3,15.6-1.3c88,60.3,143.5-16.3,143.5-16.3l23.3,22
				c0,0.7,0,1.3,0,2C628.1,781.5,515.7,866.2,445.6,775.2z"/>
			<path id="XMLID_54_" class="st6" d="M301.4,956.4c0-95.6,49.1-135.6,90.3-152.3c16.1-2.5,27,2.9,20.3,27.1
				c-17.6,63.1-20.5,174.6,4.4,195.2c24.9,20.5,16.1-47,16.1-47s13.2-24.9,33.8,32.3c7.7,21.3,6.3,40.6,1.2,56.4
				C380.2,1064.4,301.4,1030,301.4,956.4z"/>
			<path id="XMLID_53_" class="st6" d="M693.5,888.5c0,0,19.3,36.1,14.3,79c-5,42.8-21,50.4-21,50.4S668.3,824.6,693.5,888.5z"/>
			<path id="XMLID_52_" class="st7" d="M445.6,776.3c9.6-1.3,15.6-1.3,15.6-1.3c47.7,32.7,85.8,25.2,110.8,11.4
				c5.4,6.5,8.8,13.6,9.7,21.1C542.7,822.5,486.9,829.8,445.6,776.3z"/>
		</g>
		<g id="XMLID_5_">
			<g id="XMLID_44_">
				<path id="XMLID_297_" class="st3" d="M495.8,765.1H508c91.2,0,165.9-74.6,165.9-165.9v-91c0-91.2-74.6-165.9-165.9-165.9h-12.2
					C404.6,342.4,330,417,330,508.2v91C330,690.4,404.6,765.1,495.8,765.1z"/>
			</g>
			<path id="XMLID_41_" class="st8" d="M364.1,387.4c32.8-36.6,90-1.9,90-1.9s-102.2,2.8-37.5,13.1c64.7,10.3,130.3-13.1,166.9-20.6
				c36.6-7.5,32.8,37.5,24.4,45s-23.4,59.1,0.9,46.9c24.4-12.2,19.7,3.7,19.7,3.7c5.1,68.1,48.1,49.6,56,45.7l-19.6,88
				c0-0.2,0-0.3,0-0.3s-19.7,28.1-39.4,8.4c-19.7-19.7-33.7-98.4-25.3-123.7c0,0-61.9,53.4-30.9-47.8c0,0,36.6-70.3-47.8-33.7
				c-83.3,36.1-114.6-15.6-169.5,51l-11.5-36.8C352.4,407.3,364.1,387.4,364.1,387.4z"/>
			<g id="XMLID_40_">
				<path id="XMLID_295_" class="st8" d="M493.3,746.3h12.2c91.2,0,165.9-74.6,165.9-165.9v-91c0-6-0.3-11.9-1-17.8
					c2.7,11.8,4.1,24,4.1,36.5v91c0,91.2-74.6,165.9-165.9,165.9h-12.2c-85.2,0-156-65.1-164.9-148.1
					C348.3,690.8,414.6,746.3,493.3,746.3z"/>
			</g>
			<g id="XMLID_38_">
				<path id="XMLID_247_" class="st9" d="M288,471.9c14.1-64.7,16.9-106.9,75.9-154.7c0,0-50.6,5.6,0-19.7
					c50.6-25.3,61.9-45,143.4-36.6c0,0-28.1-33.7,11.2-30.9c39.4,2.8,120.9,39.4,123.7,73.1c2.8,33.7,47.8-11.2,59.1-8.4
					c11.2,2.8-11.2,25.3-11.2,25.3s73.1,30.9,36.6,47.8c0,0,67.5,112.5,36.6,199.7c-30.9,87.2-28.1-8.4-28.1-8.4
					s-11.2,73.1-39.4,87.2s-19.7-53.4-19.7-53.4s-19.7,28.1-39.4,8.4c-19.7-19.7-33.7-98.4-25.3-123.7c0,0-61.9,53.4-30.9-47.8
					c0,0,36.6-70.3-47.8-33.7c-84.4,36.6-115.3-16.9-171.6,53.4c-9.7,12.2-17,22.4-22.4,31c-10.9,35.1-6.1,125.7-6.1,125.7
					c-32.5,0-40.2-90.6-41.1-103.5C285.3,506.6,281.3,502.3,288,471.9z"/>
			</g>
			<path id="XMLID_37_" class="st3" d="M670,619.3c0,0,68.3-39,4.9-102.5C674.9,516.8,652.1,580.2,670,619.3z"/>
			<path id="XMLID_34_" class="st10" d="M508.5,541.6c-4.5,0.2-7.3,0.7-7.3,0.7c21.2-26.2,55,15,55,15c-8.6-9.1-19.9-13.1-30-14.8
				c2.3,2.4,3.8,5.6,3.8,9.2c0,7.2-5.9,13.1-13.1,13.1c-7.2,0-13.1-5.9-13.1-13.1C503.7,547.7,505.6,544,508.5,541.6z"/>
			<path id="XMLID_33_" class="st10" d="M413.4,541.6c4.5,0.2,7.3,0.7,7.3,0.7c-21.2-26.2-55,15-55,15c8.6-9.1,19.9-13.1,30-14.8
				c-2.3,2.4-3.8,5.6-3.8,9.2c0,7.2,5.9,13.1,13.1,13.1c7.2,0,13.1-5.9,13.1-13.1C418.1,547.7,416.3,544,413.4,541.6z"/>
			<path id="XMLID_31_" class="st10" d="M440,454.9c0,0-46.2,0-66.2,41.2C353.7,537.4,381.2,412.4,440,454.9z"/>
			<path id="XMLID_28_" class="st10" d="M504.8,451.1c0,0,46.2,0,66.2,41.2C591,533.6,563.5,408.6,504.8,451.1z"/>
			<path id="XMLID_27_" class="st8" d="M667.8,610.5c0,0,38.1-21.8,31-59.2c17.5,43.9-27.9,69.8-27.9,69.8c-2-4.4-3.5-9.2-4.6-14.1
				C666.8,608.2,667.3,609.4,667.8,610.5z"/>
			<path id="XMLID_26_" class="st11" d="M365.1,317.2c0,0-17.4,1.9-21.6-1.6c1.5-2.7,3-5.5,4.5-8.2c3.5-2.6,9-5.9,17.1-9.9
				c50.6-25.3,61.9-45,143.4-36.6c0,0-28.1-33.7,11.2-30.9c39.4,2.8,120.9,39.4,123.7,73.1c2.8,33.7,47.8-11.2,59.1-8.4
				c11.2,2.8-11.2,25.3-11.2,25.3s73.1,30.9,36.6,47.8c0,0,43.2,72,44.6,145.4c-1.4,1.6-2.3,2.5-2.3,2.5s-9.4,72.2-26.2,18.7
				c0,0-14.1,37.5-30,25.3c-15.9-12.2-15.9-55.3-15.9-55.3s-51.6,30-57.2-45c0,0,4.7-15.9-19.7-3.7c-24.4,12.2-9.4-39.4-0.9-46.9
				s12.2-52.5-24.4-45s-102.2,30.9-166.9,20.6c-64.7-10.3,37.5-13.1,37.5-13.1s-57.2-34.7-90,1.9c0,0-54.7,93.4-49.7,47.2
				c5-46.2-23.7,65-30,55c-1.4-2.3-4.1-3.6-7.5-4.4C303.3,406.9,306.3,364.9,365.1,317.2z"/>
			<path id="XMLID_25_" class="st11" d="M415,673.3c0,0,54.4,24.4,89.4,2.5c35-21.9,17.5,8.1,10.6,7.5
				C508.1,682.7,451.9,700.8,415,673.3z"/>
			<path id="XMLID_19_" class="st8" d="M481.2,629.1c0,0-13.8,18.7-47.7,14.5s-13.1-47,2.1-59.5
				C450.8,571.7,481.9,613.2,481.2,629.1z"/>
			<path id="XMLID_14_" class="st12" d="M480,622.8c0,0-14.4,19.4-49.5,15.1c-35.2-4.3-13.6-48.8,2.2-61.8
				C448.4,563.2,480.7,606.3,480,622.8z"/>
			<path id="XMLID_12_" class="st13" d="M441.6,630.3c15.4,0,28.5-10,33.3-23.8c3.3,6.4,5.3,12.4,5.2,16.6c0,0-14.4,19.4-49.5,15.1
				c-16.1-2-20.3-12.4-18.6-24.4C418.1,623.7,429,630.3,441.6,630.3z"/>
			<path id="XMLID_9_" class="st12" d="M481.9,621.1"/>
			<path id="XMLID_7_" class="st9" d="M500.9,252.4c0,0-1.9,3.7,23.4,10.3c25.3,6.6,0.9,17.8-32.8-1.9
				C491.6,260.8,520.6,263.6,500.9,252.4z"/>
			<path id="XMLID_6_" class="st9" d="M732.5,364.9c0,0-10-10-15-3.7c-5,6.2,17.5,21.2,17.5,21.2S722.5,357.4,732.5,364.9z"/>
		</g>
	</g>
</g>
</svg>
