<?xml version="1.0" encoding="utf-8"?>
<!-- Generator: Adobe Illustrator 19.0.0, SVG Export Plug-In . SVG Version: 6.00 Build 0)  -->
<svg version="1.1" id="Layer_1" xmlns="http://www.w3.org/2000/svg" xmlns:xlink="http://www.w3.org/1999/xlink" x="0px" y="0px"
	 viewBox="0 0 1024 1024" style="enable-background:new 0 0 1024 1024;" xml:space="preserve">
<style type="text/css">
	.st0{clip-path:url(#XMLID_2_);fill:#E3DA6E;}
	.st1{clip-path:url(#XMLID_2_);}
	.st2{fill:#BD5F46;}
	.st3{fill:#DE8458;}
	.st4{fill:#71C5D8;}
	.st5{fill:#476EB2;}
	.st6{fill:#50ABBA;}
	.st7{fill:#89A9D9;}
	.st8{fill:#C66A46;}
	.st9{fill:#23150E;}
	.st10{fill:#C05437;}
	.st11{fill:none;}
	.st12{fill:#38221E;}
	.st13{fill:#A43A26;}
	.st14{fill:#FFFFFF;}
	.st15{fill:#D1D1D1;}
	.st16{fill:#96D5DF;}
	.st17{fill:#7CCED6;}
</style>
<g id="XMLID_159_">
	<defs>
		<circle id="XMLID_316_" cx="514" cy="513.5" r="508"/>
	</defs>
	<clipPath id="XMLID_2_">
		<use xlink:href="#XMLID_316_"  style="overflow:visible;"/>
	</clipPath>
	<rect id="XMLID_317_" x="-43.4" y="-49.4" class="st0" width="1095.8" height="1095.8"/>
	<g id="XMLID_65_" class="st1">
		<g id="XMLID_127_">
			<path id="XMLID_134_" class="st2" d="M418.5,708.5v96.2c0,0,71.7,83.1,141.8,13V720C560.3,720,418.5,666.2,418.5,708.5z"/>
			<path id="XMLID_133_" class="st3" d="M550,817.5V761c-27.8-4.7-57.2,1.8-68.7,43.5c-2.6,9.5-3.7,17.7-3.6,24.8
				C496.8,839.2,523.6,843.9,550,817.5z"/>
			<path id="XMLID_132_" class="st4" d="M420,799.3c0,0,55.4,76.6,143.5,16.3c0,0,161.4,0,161.4,182.6s-436.9,148.3-436.9,0
				s104.3-172.8,104.3-172.8L420,799.3z"/>
			<path id="XMLID_131_" class="st5" d="M581.2,817.4c-9.6-1.3-15.6-1.3-15.6-1.3c-88,60.3-143.5-16.3-143.5-16.3l-23.3,22
				c0,0.7,0,1.3,0,2C398.8,823.7,511.1,908.4,581.2,817.4z"/>
			<path id="XMLID_129_" class="st6" d="M674.4,933.4c0,0,19.3,36.1,14.3,79c-5,42.8-21,50.4-21,50.4S649.2,869.5,674.4,933.4z"/>
			<path id="XMLID_128_" class="st7" d="M581.2,818.5c-9.6-1.3-15.6-1.3-15.6-1.3c-47.7,32.7-85.8,25.2-110.8,11.4
				c-5.4,6.5-8.8,13.6-9.7,21.1C484.1,864.8,540,872,581.2,818.5z"/>
		</g>
		<g id="XMLID_72_">
			<g id="XMLID_126_">
				<path id="XMLID_30_" class="st3" d="M531,807.3h-12.2c-91.2,0-165.9-74.6-165.9-165.9v-91c0-91.2,74.6-165.9,165.9-165.9H531
					c91.2,0,165.9,74.6,165.9,165.9v91C696.8,732.7,622.2,807.3,531,807.3z"/>
			</g>
			<path id="XMLID_137_" class="st8" d="M456.2,358.5l-32.4-37.7c-18.1,5.4-34.6,12.1-48.4,18.1l-36.2,147.5l30.6,111.3
				c7.9-23,4.8-69.4,8.2-60.8c4.2,10.5,1.4,13.5,25.2-3c23.8-16.5-12.6-112.3,14-65.9c26.6,46.4,130.3,9,155.5,35.9
				c16,17.1,11.1-13.3,7.6-29.5c-0.2-0.6-0.4-1.3-0.6-1.9c-3.1-12.1-1.5-7.4,0.6,1.9c10.8,30.5,83.9,18.1,107.3,46
				c14,16.7,11.5,2.4,7.1-12.3l-7.1-20.7c0,0,4,10.4,7.1,20.7l2.7,7.8c0,0,3.6,4.6,8.2,5l-35.7-117.5L456.2,358.5z"/>
			<g id="XMLID_125_">
				<path id="XMLID_27_" class="st8" d="M533.5,788.5h-12.2c-91.2,0-165.9-74.6-165.9-165.9v-91c0-6,0.3-11.9,1-17.8
					c-2.7,11.8-4.1,24-4.1,36.5v91c0,91.2,74.6,165.9,165.9,165.9h12.2c85.2,0,156-65.1,164.9-148.1
					C678.5,733,612.2,788.5,533.5,788.5z"/>
			</g>
			<path id="XMLID_119_" class="st9" d="M364.4,700.8c0,0-71.4-158.7-88.2-170.6c-16.8-12-7-38.9-7-38.9s-22.4-7.5-2.8-32.9
				c0,0-22.4-6,5.6-28.4c28-22.5,54.6-32.9,54.6-32.9s1.4-61.4,12.6-52.4c11.2,9,105-61.4,194.7-37.4c89.6,24,127.5,22.5,127.5,22.5
				L650.1,340c0,0,81.2,50.9,82.6,86.8c1.4,35.9-15.4,4.5-15.4,4.5s7,73.3,0,79.3c-7,6-14-3-14-3l-9.8-28.4c0,0,23.8,61.4,0,32.9
				s-99.4-15-107.8-47.9c-8.4-32.9,18.2,58.4-7,31.4c-25.2-26.9-128.9,10.5-155.5-35.9s9.8,49.4-14,65.9c-23.8,16.5-21,13.5-25.2,3
				c-4.2-10.5,1.4,61.4-15.4,71.9C351.8,610.9,364.4,700.8,364.4,700.8z"/>
			<path id="XMLID_123_" class="st3" d="M356.8,661.5c0,0-68.3-39-4.9-102.5C352,559,374.7,622.4,356.8,661.5z"/>
			<path id="XMLID_121_" class="st8" d="M359,652.7c0,0-38.1-21.8-31-59.2c-17.5,43.9,27.9,69.8,27.9,69.8c2-4.4,3.5-9.2,4.6-14.1
				C360,650.4,359.6,651.6,359,652.7z"/>
			<path id="XMLID_120_" class="st10" d="M544.9,663.3"/>
			<path id="XMLID_85_" class="st8" d="M679.9,355c-3.8-3.2-6.1-4.8-6.1-4.8S676.5,352.5,679.9,355z"/>
			<path id="XMLID_78_" class="st11" d="M671,456.3c0.8,1.3,1.7,2.6,2.5,3.8C674.1,458.5,671,456.3,671,456.3z"/>
			<path id="XMLID_86_" class="st12" d="M528.7,552.9c0,0-58.5,1.4-66.7,10.9s4.1-16.3,10.9-17.7
				C479.7,544.7,520.6,544.7,528.7,552.9z"/>
			<path id="XMLID_75_" class="st12" d="M590.4,554.3c0,0,58.5,1.4,66.7,10.9s-4.1-16.3-10.9-17.7
				C639.4,546.1,598.6,546.1,590.4,554.3z"/>
			<ellipse id="XMLID_87_" class="st12" cx="507.6" cy="596.4" rx="15.6" ry="21.8"/>
			<path id="XMLID_102_" class="st8" d="M542.3,653.4c0,0-21.8,23.8,23.8,23.8s26.5-42.9,2-38.8
				C543.7,642.5,542.3,653.4,542.3,653.4z"/>
			<ellipse id="XMLID_88_" class="st12" cx="607.4" cy="593.3" rx="15.6" ry="21.8"/>
			<path id="XMLID_101_" class="st10" d="M546,648.6c0,0-21.8,23.8,23.8,23.8s26.5-42.9,2-38.8C547.3,637.7,546,648.6,546,648.6z"/>
			<path id="XMLID_109_" class="st13" d="M572.2,664.4c-11.9,0-22-7.9-25.2-18.8c-1.7,2.3-1.9,3.9-1.9,3.9s-21.8,23.8,23.8,23.8
				c24.5,0,30.3-12.3,26.7-23.2C591.2,658.6,582.3,664.4,572.2,664.4z"/>
			<path id="XMLID_115_" class="st12" d="M733.6,424.6c-1.4-35.9-82.6-86.8-82.6-86.8l11.2-10.5c0,0-37.8,1.5-127.5-22.5
				c-89.6-24-183.5,46.4-194.7,37.4c-11.2-9-12.6,52.4-12.6,52.4s-26.6,10.5-54.6,32.9c-28,22.5-5.6,28.4-5.6,28.4
				c-19.6,25.4,2.8,32.9,2.8,32.9s-9.8,26.9,7,38.9c2.4,1.7,6,6.5,10.3,13.3c12.7-5.2,32.3-16.1,34.2-34.4
				c2.7-27.2,5.4,15,21.8-12.2c0,0,6.8,16.3,28.6-34c0,0,23.1,50.3,21.8-4.1c-1.4-54.4-5.4-49-5.4-49s5.4-15,32.7,8.2
				c27.2,23.1,73.5,38.1,72.1,23.1c0,0,38.1-9.5,54.4,2.7c16.3,12.2,2.7-12.2,2.7-12.2s68,27.2,85.7,16.3s-2.7-15-2.7-15
				s50.3-6.8,64,6.8c13.6,13.6,21.2-8.4,21.2-8.4l15.5-3.1C733.7,425.5,733.7,425,733.6,424.6z"/>
		</g>
		<path id="XMLID_94_" class="st13" d="M594.1,700.1c0,0-74.6,8.9-94.3-4.6C480.2,682,556,833.5,594.1,700.1z"/>
		<path id="XMLID_112_" class="st14" d="M589.8,716.1c1.9-5,3.7-10.5,5.5-16.6c0,0-74.6,8.9-94.3-4.6c-5.5-3.8-3.5,5.5,3.2,17.9
			C523.6,721.7,573.3,717.7,589.8,716.1z"/>
		<path id="XMLID_135_" class="st15" d="M511.2,699.5c-4.3-1.1-7.9-2.5-10.6-4.3c-5.5-3.8-3.5,5.5,3.2,17.9c1.2,0.6,2.6,1.1,4.1,1.6
			c-0.1-0.8-0.1-1.6-0.1-2.4C507.8,707.5,509,703.2,511.2,699.5z"/>
		<path id="XMLID_110_" class="st16" d="M343.2,914.4c0,0-61.2,106.1-13.6,144.2C377.2,1096.7,343.2,914.4,343.2,914.4z"/>
		<path id="XMLID_122_" class="st17" d="M590.3,897.1c0,0,57.2,108.9,19.1,172.4c-38.1,63.5-215.9-3.6-215.9-3.6s1.8-94.3,17.2-99.8
			s28.1,49,28.1,49s11.8-60.8,51.7-44.5s64.4,58.1,68,24.5C562.2,961.5,590.3,897.1,590.3,897.1z"/>
		<g id="XMLID_111_">
			<g id="XMLID_12_">
				<path id="XMLID_16_" class="st16" d="M339,1005.2c3.2,0,3.2-5,0-5C335.8,1000.2,335.8,1005.2,339,1005.2L339,1005.2z"/>
			</g>
		</g>
	</g>
</g>
</svg>
