<?xml version="1.0" encoding="utf-8"?>
<!-- Generator: Adobe Illustrator 19.0.0, SVG Export Plug-In . SVG Version: 6.00 Build 0)  -->
<svg version="1.1" id="Layer_1" xmlns="http://www.w3.org/2000/svg" xmlns:xlink="http://www.w3.org/1999/xlink" x="0px" y="0px"
	 viewBox="0 0 1024 1024" style="enable-background:new 0 0 1024 1024;" xml:space="preserve">
<style type="text/css">
	.st0{clip-path:url(#XMLID_6_);fill:#C9556B;}
	.st1{clip-path:url(#XMLID_6_);}
	.st2{fill:#BD5F46;}
	.st3{fill:#DE8458;}
	.st4{fill:#454545;}
	.st5{fill:#282828;}
	.st6{fill:#565656;}
	.st7{fill:#515251;}
	.st8{fill:#C66A46;}
	.st9{fill:#493F38;}
	.st10{fill:#C05437;}
	.st11{fill:#23150E;}
	.st12{fill:#38221E;}
	.st13{fill:#A43A26;}
	.st14{fill:#FFFFFF;}
	.st15{fill:#E4E4E4;}
	.st16{fill:none;}
</style>
<g id="XMLID_156_">
	<defs>
		<circle id="XMLID_306_" cx="513.5" cy="510.7" r="508"/>
	</defs>
	<clipPath id="XMLID_6_">
		<use xlink:href="#XMLID_306_"  style="overflow:visible;"/>
	</clipPath>
	<rect id="XMLID_307_" x="-27.1" y="-23.7" class="st0" width="1095.8" height="1095.8"/>
	<g id="XMLID_58_" class="st1">
		<g id="XMLID_3_">
			<path id="XMLID_64_" class="st2" d="M595.4,663.5v96.2c0,0-71.7,83.1-141.8,13v-97.8C453.6,674.9,595.4,621.1,595.4,663.5z"/>
			<path id="XMLID_62_" class="st3" d="M463.9,772.4v-56.5c27.8-4.7,57.2,1.8,68.7,43.5c2.6,9.5,3.7,17.7,3.6,24.8
				C517.2,794.1,490.4,798.9,463.9,772.4z"/>
			<path id="XMLID_42_" class="st4" d="M594,754.2c0,0-55.4,76.6-143.5,16.3c0,0-161.4,0-161.4,182.6s436.9,148.3,436.9,0
				S621.7,780.3,621.7,780.3L594,754.2z"/>
			<path id="XMLID_35_" class="st5" d="M432.7,772.3c9.6-1.3,15.6-1.3,15.6-1.3c88,60.3,143.5-16.3,143.5-16.3l23.3,22
				c0,0.7,0,1.3,0,2C615.2,778.7,502.8,863.3,432.7,772.3z"/>
			<path id="XMLID_10_" class="st6" d="M288.5,953.5c0-95.6,49.1-135.6,90.3-152.3c16.1-2.5,27,2.9,20.3,27.1
				c-17.6,63.1-20.5,174.6,4.4,195.2c24.9,20.5,16.1-47,16.1-47s13.2-24.9,33.8,32.3c7.7,21.3,6.3,40.6,1.2,56.4
				C367.4,1061.6,288.5,1027.1,288.5,953.5z"/>
			<path id="XMLID_8_" class="st6" d="M680.6,885.6c0,0,19.3,36.1,14.3,79c-5,42.8-21,50.4-21,50.4S655.4,821.7,680.6,885.6z"/>
			<path id="XMLID_13_" class="st7" d="M432.7,773.4c9.6-1.3,15.6-1.3,15.6-1.3c47.7,32.7,85.8,25.2,110.8,11.4
				c5.4,6.5,8.8,13.6,9.7,21.1C529.8,819.7,474,826.9,432.7,773.4z"/>
		</g>
		<g id="XMLID_48_">
			<g id="XMLID_17_">
				<path id="XMLID_81_" class="st3" d="M482.9,762.2h12.2c91.2,0,165.9-74.6,165.9-165.9v-91c0-91.2-74.6-165.9-165.9-165.9h-12.2
					c-91.2,0-165.9,74.6-165.9,165.9v91C317.1,687.6,391.7,762.2,482.9,762.2z"/>
			</g>
			<g id="XMLID_46_">
				<path id="XMLID_77_" class="st8" d="M480.4,743.5h12.2c91.2,0,165.9-74.6,165.9-165.9v-91c0-6-0.3-11.9-1-17.8
					c2.7,11.8,4.1,24,4.1,36.5v91c0,91.2-74.6,165.9-165.9,165.9h-12.2c-85.2,0-156-65.1-164.9-148.1
					C335.4,687.9,401.8,743.5,480.4,743.5z"/>
			</g>
			<path id="XMLID_4_" class="st9" d="M659.5,623.1c0,0,80.3-102,76.2-160.6c-4.1-58.5-92.5-102-138.8-89.8
				C550.6,384.9,655.4,556.4,659.5,623.1z"/>
			<path id="XMLID_18_" class="st3" d="M657.1,616.4c0,0,68.3-39,4.9-102.5C662,513.9,639.2,577.4,657.1,616.4z"/>
			<path id="XMLID_63_" class="st8" d="M488.5,248c0,0-11-4.8-1.7-8.6l113.5,204.4c-2.4-0.6-3.6,1.1-3,7c2.7,25.9-35.4,0-43.5-20.4
				c-8.2-20.4-61.2-31.3-127.9-46.3c-66.7-15-57.1,31.3-74.8,32.7c-7.6,0.6-10.2-0.3-10.6-1.6c0.8-1.3,1.6-2.5,2.5-3.8
				c0,0-3.1,2.2-2.5,3.8c-4.9,7.6-9.3,14.3-13.2,20.3c15.6-55.7,38.5-137.1,48-171.9C423.4,248.6,488.5,248,488.5,248z"/>
			<path id="XMLID_47_" class="st8" d="M654.9,607.7c0,0,38.1-21.8,31-59.2c17.5,43.9-27.9,69.8-27.9,69.8c-2-4.4-3.5-9.2-4.6-14.1
				C653.9,605.3,654.4,606.5,654.9,607.7z"/>
			<path id="XMLID_2_" class="st10" d="M469,618.2"/>
			<path id="XMLID_15_" class="st11" d="M727.5,461.1c0,0,39.5-32.7,20.4-72.1c-19-39.5-15-4.1-15-4.1s-23.1-72.1-51.7-68
				c-28.6,4.1-5.4,15-5.4,15s-28.6-73.5-53.1-69.4s-12.2,13.6-12.2,13.6s-36.7-55.8-80.3-53.1c-43.5,2.7-21.8,12.2-21.8,12.2
				s-136.1,1.4-160.6,44.9s12.2,12.2,12.2,12.2s-51.7,34-58.5,114.3c-6.8,80.3,16.3-5.4,16.3-5.4l-4.1,62.6c0,0-12.2,29.9,49-65.3
				c0,0-9.5,6.8,8.2,5.4c17.7-1.4,8.2-47.6,74.8-32.7c66.7,15,119.7,25.9,127.9,46.3s46.3,46.3,43.5,20.4
				c-2.7-25.9,31.3,28.6,39.5,13.6s53.1,32.7,54.4,15C712.5,448.9,727.5,461.1,727.5,461.1z"/>
			<path id="XMLID_16_" class="st12" d="M476.5,511.8c0,0,69.4,0,83,15c0,0,16.3,1.1-7.3-11.6c0,0,14.5-7.9-12.1-9.7
				c0,0,9.7-12.1-21.8-7.9c0,0-1.8-16.3-31.4,1.2C457.3,516.4,476.5,511.8,476.5,511.8z"/>
			<path id="XMLID_20_" class="st12" d="M408.2,506.2c0,0-60-8.9-73.7,2.3c0,0-14.2-1.1,7.8-9.1c0,0-11.5-8.7,11.7-6.8
				c0,0-6.8-11.7,19.8-4c0,0,3.7-13.9,27,5.1S408.2,506.2,408.2,506.2z"/>
			<path id="XMLID_22_" class="st12" d="M487.6,525.5c0,0,42.4-3.7,21.2,39.3C487.6,607.9,487.6,525.5,487.6,525.5z"/>
			<path id="XMLID_23_" class="st12" d="M398.9,519.1c0,0-34.7-3.9-17.3,41.4C398.9,605.8,398.9,519.1,398.9,519.1z"/>
			<path id="XMLID_1_" class="st8" d="M472.7,623.1c0,0-10,29.9-62.6,18.1s-4.5-46.3-4.5-46.3S470,576,472.7,623.1z"/>
			<path id="XMLID_32_" class="st10" d="M466.3,617.1c0,0-10,29.9-62.6,18.1s-4.5-46.3-4.5-46.3S463.6,569.9,466.3,617.1z"/>
			<path id="XMLID_49_" class="st13" d="M414.6,628c20.3,0,37.2-14.9,40.3-34.3c6.5,4.8,11,12.5,11.7,24.3c0,0-10,29.9-62.6,18.1
				c-24.7-5.5-27.2-16.1-22.9-25.7C388.5,621,400.7,628,414.6,628z"/>
			<path id="XMLID_50_" class="st12" d="M487.8,670.7c0.1,0,0.2-0.1,0.3-0.1c29-11.6,5,32-25.6,32.8
				C483.1,696.6,497.4,673.3,487.8,670.7z"/>
			<path id="XMLID_45_" class="st14" d="M383,661.1c0,0,2.7,1,7.3,2.4c17.4,5.5,61.9,18,88.1,10.8c1.5-0.4,3-0.9,4.3-1.4
				c4.6-1.9,7.9-2.3,10-1.7c9.6,2.6-4.7,25.9-25.4,32.7c-6,2-12.5,2.5-19.1,0.8C413.9,695.5,367.6,666.5,383,661.1z"/>
			<path id="XMLID_30_" class="st15" d="M482.4,673.1c0.1,0,0.2-0.1,0.3-0.1c29-11.6,5,32-25.6,32.8
				C477.7,699,492,675.7,482.4,673.1z"/>
			<path id="XMLID_61_" class="st8" d="M334,309.9c3.8-3.2,6.1-4.8,6.1-4.8S337.5,307.4,334,309.9z"/>
			<path id="XMLID_59_" class="st16" d="M342.9,411.2c-0.8,1.3-1.7,2.6-2.5,3.8C339.8,413.4,342.9,411.2,342.9,411.2z"/>
			<path id="XMLID_76_" class="st12" d="M352.2,296c3.4-2.3,6.1-4.4,6.1-4.4S355.9,293,352.2,296c-9.3,6.2-24,13.7-6.1-15.8
				c24.5-40.4,160.6-41.7,160.6-41.7s-21.8-8.8,21.8-11.4c36.3-2.1,67.9,33.6,77.4,45.5c0.6,2.2,2.9,3.8,2.9,3.8s-1-1.4-2.9-3.8
				c-0.9-2.9,1.2-6.7,15.1-8.9c18.1-2.8,38.5,33.8,47.8,53c-10.5,4.5,5.2,11.4,5.2,11.4s-1.9-4.6-5.2-11.4c2.2-1,5.7-1.8,10.7-2.5
				c28.6-3.8,51.7,63.2,51.7,63.2s-4.1-32.9,15,3.8c4.2,8.1,5.6,15.9,5.1,23.1c-8.2,9.3-23.4,19.5-48.2,11
				c-40.8-13.9-20.4,3.8-20.4,3.8s-10.9,12.6-36.7-12.6c-25.9-25.3-10.9,1.3-10.9,1.3s-35.4-26.5-34-12.6
				c1.4,13.9-29.9-6.3-35.4-16.4c-5.4-10.1-12.2-31.6-70.8-27.8c-58.5,3.8-25.9-19-16.3-19c9.5,0-54.4-6.3-78.9,15.2
				s-36.7,26.5-27.2,5.1c8.1-18.3-47.9,39.5-69.8,26.6C312.4,332.1,339.8,305.7,352.2,296z"/>
		</g>
	</g>
</g>
</svg>
