<?xml version="1.0" encoding="utf-8"?>
<!-- Generator: Adobe Illustrator 19.0.0, SVG Export Plug-In . SVG Version: 6.00 Build 0)  -->
<svg version="1.1" id="Layer_1" xmlns="http://www.w3.org/2000/svg" xmlns:xlink="http://www.w3.org/1999/xlink" x="0px" y="0px"
	 viewBox="0 0 1024 1024" style="enable-background:new 0 0 1024 1024;" xml:space="preserve">
<style type="text/css">
	.st0{clip-path:url(#XMLID_2_);fill:#7A4199;}
	.st1{clip-path:url(#XMLID_2_);}
	.st2{fill:#6DAF44;}
	.st3{fill:#BD5F46;}
	.st4{fill:#DE8458;}
	.st5{fill:#A2D180;}
	.st6{fill:#C66A46;}
	.st7{fill:#493F38;}
	.st8{fill:none;}
	.st9{fill:#23150E;}
	.st10{fill:#38221E;}
	.st11{fill:#2B221F;}
	.st12{fill:#C05437;}
	.st13{fill:#A43A26;}
	.st14{fill:#DEDDDD;}
</style>
<g id="XMLID_144_">
	<defs>
		<circle id="XMLID_145_" cx="512.4" cy="514.6" r="508"/>
	</defs>
	<clipPath id="XMLID_2_">
		<use xlink:href="#XMLID_145_"  style="overflow:visible;"/>
	</clipPath>
	<rect id="XMLID_309_" x="-34.4" y="-19.7" class="st0" width="1095.8" height="1095.8"/>
	<g id="XMLID_66_" class="st1">
		<g id="XMLID_93_">
			<path id="XMLID_193_" class="st2" d="M606.1,804.4c0,0,63.5-27.2,72.6-9.1c9.1,18.1,0.9,26.3,0.9,26.3s22.7,12.7,14.5,23.6
				c-8.2,10.9-253.1,8.2-264-9.1s-13.6-39,10-37.2s110.7-17.2,136.1-2.7C601.5,810.7,606.1,804.4,606.1,804.4z"/>
			<path id="XMLID_188_" class="st3" d="M447.9,712.6v96.2c0,0,71.7,83.1,141.8,13V724C589.7,724,447.9,670.2,447.9,712.6z"/>
			<path id="XMLID_163_" class="st4" d="M579.4,821.5V765c-27.8-4.7-57.2,1.8-68.7,43.5c-2.6,9.5-3.7,17.7-3.6,24.8
				C526.2,843.2,553,848,579.4,821.5z"/>
			<path id="XMLID_162_" class="st2" d="M449.4,803.3c0,0,55.4,76.6,143.5,16.3c0,0,161.4,0,161.4,182.6s-436.9,148.3-436.9,0
				s104.3-172.8,104.3-172.8L449.4,803.3z"/>
			<path id="XMLID_161_" class="st5" d="M754.9,1002.6c0-95.6-49.1-135.6-90.3-152.3c-16.1-2.5-27,2.9-20.3,27.1
				c17.6,63.1,20.5,174.6-4.4,195.2c-24.9,20.5-16.1-47-16.1-47s-13.2-24.9-33.8,32.3c-7.7,21.3-6.3,40.6-1.2,56.4
				C676,1110.7,754.9,1076.2,754.9,1002.6z"/>
			<path id="XMLID_160_" class="st5" d="M362.8,934.7c0,0-19.3,36.1-14.3,79c5,42.8,21,50.4,21,50.4S388,870.8,362.8,934.7z"/>
		</g>
		<g id="XMLID_83_">
			<g id="XMLID_100_">
				<path id="XMLID_39_" class="st4" d="M560.4,811.3h-12.2c-91.2,0-165.9-74.6-165.9-165.9v-91c0-91.2,74.6-165.9,165.9-165.9h12.2
					c91.2,0,165.9,74.6,165.9,165.9v91C726.3,736.7,651.6,811.3,560.4,811.3z"/>
			</g>
			<g id="XMLID_99_">
				<path id="XMLID_37_" class="st6" d="M562.9,792.6h-12.2c-91.2,0-165.9-74.6-165.9-165.9v-91c0-6,0.3-11.9,1-17.8
					c-2.7,11.8-4.1,24-4.1,36.5v91c0,91.2,74.6,165.9,165.9,165.9h12.2c85.2,0,156-65.1,164.9-148.1
					C707.9,737,641.6,792.6,562.9,792.6z"/>
			</g>
			<path id="XMLID_98_" class="st7" d="M380.3,679.4c0,0-80.3-102-76.2-160.6c4.1-58.5,92.5-102,138.8-89.8S384.3,612.7,380.3,679.4
				z"/>
			<path id="XMLID_96_" class="st4" d="M386.3,665.5c0,0-68.3-39-4.9-102.5C381.4,563,404.2,626.5,386.3,665.5z"/>
			<path id="XMLID_95_" class="st6" d="M388.4,656.8c0,0-38.1-21.8-31-59.2c-17.5,43.9,27.9,69.8,27.9,69.8c2-4.4,3.5-9.2,4.6-14.1
				C389.5,654.4,389,655.6,388.4,656.8z"/>
			<path id="XMLID_92_" class="st6" d="M709.3,359c-3.8-3.2-6.1-4.8-6.1-4.8S705.9,356.5,709.3,359z"/>
			<path id="XMLID_91_" class="st8" d="M700.5,460.3c0.8,1.3,1.7,2.6,2.5,3.8C703.5,462.5,700.5,460.3,700.5,460.3z"/>
			<path id="XMLID_90_" class="st6" d="M534.2,319.9l16.8-16.7c-5.2-9.9-14.8-16.5-26-16.5c-0.6,0-1.2,0-1.8,0.1l-53.1,161.1
				c0.5-0.2,0.8-0.3,0.8-0.3s25.4,46.1,39,16.6c13.6-29.6,39.9-50.9,64.4-33.1c24.5,17.7,56.2,46.1,69.8,27.2
				c13.6-18.9,41.7,36.7,53.5,16.6c2.6-4.4,5-4.5,7.5-2.1l-11.8-37.2L534.2,319.9z"/>
			<path id="XMLID_89_" class="st9" d="M751.2,341c-21.8-94.6-98.9-72.2-102.5-47.3c-1.6,10.7-9.2,11.3-18.4,8.8
				c0.2-1.3,0.4-2.7,0.4-4.2c0-12.4-9.1-22.4-20.4-22.4c-6.8,0-12.9,3.7-16.6,9.4c-4.1-13.3-15.5-22.8-29-22.8
				c-15.1,0-27.6,12-30.2,27.8c-4.5-11.9-15.2-20.3-27.7-20.3c-12.4,0-23,8.3-27.6,20.1c-0.9-0.4-1.7-0.9-2.6-1.4
				c-4.6-7.7-12.6-12.7-21.6-12.7c-12.7,0-23.2,10-25.4,23.2c-3.9-0.9-7.8-0.3-11.4,5.2c-0.4,0.6-0.8,1.2-1.2,1.8
				c-6.1,1.2-11.2,5.8-13.6,11.9c-6.8-7.6-16.2-12.2-26.6-12.2c-18.3,0-33.4,14.3-36.7,33.3c-5.3,0.4-8.9,0.2-11.2,4.2
				c-10.2,1.6-18,11.3-18,22.9c0,2.7,0.4,5.3,1.2,7.8c0,0.4,0,0.8,0,1.3c0.1,1.7,0,3.3-0.2,4.8c-12.4,3.7-21.5,16.2-21.5,30.9
				c0,6.7,1.9,12.9,5.1,18.1c-1.7,4.2-7.5,5.3-11.5,13.6c-0.3,0.7-0.6,1.3-1,1.9c-6.3,6.3-10.3,15.4-10.3,25.4
				c0,6.7,1.8,12.9,4.8,18.2c-0.6,3.7,0.5,6.6,5.7,7.4c5.5,5.4,12.8,8.7,20.8,8.7c0.2,0,0.4,0,0.7,0c6.5,5.4,11.4,7.2,27.4-17.9
				c26.3-41.4,39-8.3,59.9-26c20.9-17.7,60.8-29.6,60.8-29.6s25.4,46.1,39,16.6c13.6-29.6,39.9-50.9,64.4-33.1
				c24.5,17.7,56.2,46.1,69.9,27.2c13.6-18.9,41.7,36.7,53.5,16.6s21.8,49.7,32.7,40.2c10.9-9.5,39.9-24.8,16.3-52
				C705,419,773,435.6,751.2,341z"/>
			<path id="XMLID_84_" class="st10" d="M749.9,341c-21.8-94.6-98.9-72.2-102.5-47.3c-1.6,10.7-9.2,11.3-18.4,8.8
				c0.2-1.3,0.4-2.7,0.4-4.2c0-12.4-9.1-22.4-20.4-22.4c-6.8,0-12.9,3.7-16.6,9.4c-4.1-13.3-15.5-22.8-29-22.8
				c-15.1,0-27.6,12-30.2,27.8c-4.5-11.9-15.2-20.3-27.7-20.3c-12.4,0-23,8.3-27.6,20.1c-0.9-0.4-1.7-0.9-2.6-1.4
				c-4.6-7.7-12.6-12.7-21.6-12.7c-12.7,0-23.2,10-25.4,23.2c-3.9-0.9-7.8-0.3-11.4,5.2c-0.4,0.6-0.8,1.2-1.2,1.8
				c-6.1,1.2-11.2,5.8-13.6,11.9c-6.8-7.6-16.2-12.2-26.6-12.2c-18.3,0-33.4,14.3-36.7,33.3c-5.3,0.4-8.9,0.2-11.2,4.2
				c-10.2,1.6-18,11.3-18,22.9c0,2.7,0.4,5.3,1.2,7.8c0,0.4,0,0.8,0,1.3c0.1,1.7,0,3.3-0.2,4.8c-12.4,3.7-21.5,16.2-21.5,30.9
				c0,6.7,1.9,12.9,5.1,18.1c-1.7,4.2-7.5,5.3-11.5,13.6c-0.3,0.7-0.6,1.3-1,1.9c-6.3,6.3-10.3,15.4-10.3,25.4c0,4.3,0.7,8.4,2,12.2
				c1.8,0.3,3.6,0.5,5.5,0.5c16.4,0,29.6-13.3,29.6-29.6c0-4.8-1.2-9.3-3.2-13.4c21.5-0.7,38.7-18.3,38.7-40
				c0-6.2-1.4-12.1-3.9-17.3c9.7-3.8,16.5-13.2,16.5-24.2c0-0.4,0-0.8,0-1.3c5.7,6.2,13.9,10.2,23,10.2c15.8,0,28.8-11.8,30.8-27.1
				c4.3,5.3,10.8,8.8,18.1,9.2c1,15,8.3,26,30.2,19c36.4-11.5,57.9-18.3,58.5-28.4c1.7,0.3,3.4,0.5,5.2,0.5c2.1,0,4.2-0.2,6.2-0.7
				c-2.7,9.6-0.9,19.4,14.4,23.1c16.1,3.9,29.1-6.9,35.4-19.5c10.6-0.4,19.9-6,25.4-14.3c0.3,0.1,0.6,0.2,0.8,0.3c0,0.2,0,0.5,0,0.7
				c0,12.7,10.3,23,23,23c3.1,0,6-0.6,8.7-1.7c-4.9,8.8-8,21.1,12.9,21.1c32.7,0,0,58.5,29.9,50.3c20.9-5.7,41.9,33.2,56.3,38.4
				c-1.1-4.6-3.7-9.6-8.4-15.1C703.6,419,771.6,435.6,749.9,341z"/>
		</g>
		<path id="XMLID_79_" class="st11" d="M560.3,521.4l-74.8,25.9l17.7-13.6c0,0-6.8-4.1,12.2-9.5c19-5.4-9.5-10.9,12.2-9.5
			C549.5,516,553.5,513.3,560.3,521.4z"/>
		<path id="XMLID_73_" class="st11" d="M625.2,522.8l74.8,25.9l-17.7-13.6c0,0,6.8-4.1-12.2-9.5c-19-5.4,9.5-10.9-12.2-9.5
			S632,514.6,625.2,522.8z"/>
		<path id="XMLID_67_" class="st11" d="M540,570.4c0,0-40.1,19.5-9.3,35C561.6,620.8,560.5,570.4,540,570.4z"/>
		<path id="XMLID_68_" class="st11" d="M652.2,570c0,0,40.1,19.5,9.3,35C630.6,620.4,631.6,570,652.2,570z"/>
		<path id="XMLID_69_" class="st12" d="M565.8,634.4c0,0,32.7,66.7,80.3,12.2S565.8,634.4,565.8,634.4z"/>
		<path id="XMLID_74_" class="st13" d="M615.1,652.9c-16.6,0-31.2-8.7-39.5-21.7c-6.3,1.9-10.4,3.2-10.4,3.2s32.7,66.7,80.3,12.2
			c7-8,10.2-13.9,10.6-18.1C648.3,643,632.9,652.9,615.1,652.9z"/>
		<path id="XMLID_70_" class="st10" d="M644.2,721.8c0,0-78,10.9-95.2-3.6S563.4,758.1,644.2,721.8z"/>
		<path id="XMLID_80_" class="st5" d="M661.4,796.2c0,0-24.5,1.8-6.4,20c18.1,18.1,33.6-15.4,20-20
			C661.4,791.7,661.4,796.2,661.4,796.2z"/>
		<path id="XMLID_81_" class="st14" d="M449.9,850.2c0,0,26.6,38.1,16.9,64.1s-26.6,38.1-5.4,59.3c21.2,21.2-14.5-16.9,1.8-35.1
			c16.3-18.1,15.7-74.4-8.5-90.7C430.5,831.5,449.9,850.2,449.9,850.2z"/>
		<path id="XMLID_71_" class="st14" d="M555.1,873.2c0,0-33.3-10.9-33.9,32.7c-0.6,43.5,7.3,49-13.3,79.8
			c-20.6,30.8-7.3,52.6-2.4,58.7c4.8,6-5.4-20.6-5.4-26s15.7-34.5,20.6-45.4c4.8-10.9,6-35.7,6-55.6S537,872,546,875.6
			C555.1,879.2,555.1,873.2,555.1,873.2z"/>
	</g>
</g>
</svg>
