<?xml version="1.0" encoding="utf-8"?>
<!-- Generator: Adobe Illustrator 19.0.0, SVG Export Plug-In . SVG Version: 6.00 Build 0)  -->
<svg version="1.1" id="Layer_1" xmlns="http://www.w3.org/2000/svg" xmlns:xlink="http://www.w3.org/1999/xlink" x="0px" y="0px"
	 viewBox="0 0 1024 1024" style="enable-background:new 0 0 1024 1024;" xml:space="preserve">
<style type="text/css">
	.st0{clip-path:url(#XMLID_2_);fill:#F4A26F;}
	.st1{clip-path:url(#XMLID_2_);}
	.st2{fill:#BD5F46;}
	.st3{fill:#DE8458;}
	.st4{fill:#E2DED7;}
	.st5{fill:#E0445A;}
	.st6{fill:#EAE9E8;}
	.st7{fill:#C66A46;}
	.st8{fill:#23150E;}
	.st9{fill:#C05437;}
	.st10{fill:none;}
	.st11{fill:#38221E;}
	.st12{fill:#A43A26;}
</style>
<g id="XMLID_151_">
	<defs>
		<circle id="XMLID_319_" cx="513.2" cy="515.4" r="508"/>
	</defs>
	<clipPath id="XMLID_2_">
		<use xlink:href="#XMLID_319_"  style="overflow:visible;"/>
	</clipPath>
	<rect id="XMLID_320_" x="-41.6" y="-19" class="st0" width="1095.8" height="1095.8"/>
	<g id="XMLID_154_" class="st1">
		<g id="XMLID_207_">
			<path id="XMLID_215_" class="st2" d="M449,711.4v96.2c0,0,71.7,83.1,141.8,13v-97.8C590.8,722.8,449,669,449,711.4z"/>
			<path id="XMLID_214_" class="st3" d="M580.5,820.4v-56.5c-27.8-4.7-57.2,1.8-68.7,43.5c-2.6,9.5-3.7,17.7-3.6,24.8
				C527.3,842.1,554.1,846.8,580.5,820.4z"/>
			<path id="XMLID_213_" class="st4" d="M450.5,802.2c0,0,55.4,76.6,143.5,16.3c0,0,161.4,0,161.4,182.6s-436.9,148.3-436.9,0
				s104.3-172.8,104.3-172.8L450.5,802.2z"/>
			<path id="XMLID_209_" class="st5" d="M596.2,809.3c0,0-4.5,5.4,21.8,13.6c26.3,8.2-25.4,44.5-25.4,44.5l-21.8-23.6L559.9,871
				l-18.1,8.2c0,0,11.8,78.9-2.7,78.9s-31.8-5.4-31.8-5.4l-0.9-68.9L481,846.5c0,0-12.7,29.9-28.1,19
				c-15.4-10.9-33.6-40.8-33.6-40.8l31.2-22.6l45.9,28c0,0,10.9,17.2,14.5,23.6c3.6,6.3,19.1,18.1,24.5,7.3
				c5.4-10.9,16.3-22.7,16.3-22.7S591.7,822.9,596.2,809.3z"/>
			<path id="XMLID_208_" class="st6" d="M706,879.2c0,0-22.7-25.4-10.9,22.7s-23.6,1.8-16.3,37.2c7.3,35.4,15.4,128.8,6.3,144.2
				C676,1098.7,797.6,1030.7,706,879.2z"/>
			<path id="XMLID_173_" class="st6" d="M388.5,952.7c0,0-15,93.9,2.7,115.7C408.9,1090.1,323.2,1026.2,388.5,952.7z"/>
		</g>
		<g id="XMLID_175_">
			<g id="XMLID_206_">
				<path id="XMLID_32_" class="st3" d="M561.5,810.2h-12.2c-91.2,0-165.9-74.6-165.9-165.9v-91c0-91.2,74.6-165.9,165.9-165.9h12.2
					c91.2,0,165.9,74.6,165.9,165.9v91C727.4,735.5,652.7,810.2,561.5,810.2z"/>
			</g>
			<path id="XMLID_241_" class="st7" d="M726.4,455.5l-102.1-41.7l-184.1,10l-8.2,59l29.5,28.3c-0.3-1.7-0.4-3.6-0.5-5.6
				c-0.9-29,62.6-27.2,100.7-43.5c38.1-16.3,123.4,22.7,140.6,32.7c2.3,1.4,4.5,3.9,6.4,7.4l20.8-37.2
				C728.7,462,727.7,458.9,726.4,455.5z"/>
			<g id="XMLID_205_">
				<path id="XMLID_29_" class="st7" d="M564,791.4h-12.2c-91.2,0-165.9-74.6-165.9-165.9v-91c0-6,0.3-11.9,1-17.8
					c-2.7,11.8-4.1,24-4.1,36.5v91c0,91.2,74.6,165.9,165.9,165.9h12.2c85.2,0,156-65.1,164.9-148.1
					C709,735.9,642.7,791.4,564,791.4z"/>
			</g>
			<path id="XMLID_181_" class="st8" d="M731.4,468.2c-1.3-5.8-2.9-11.1-4.9-16c-5.6-26.8-42-145.9-245.4-102.3
				c-26,5.6-47.9,13.2-66.3,22.3c3.4-17.1,0.5-36.5-23.5-48.1c-50.3-24.5-111.6,29.9-121.1,70.8c-9.5,40.8-25.9,102,5.4,156.5
				c31.3,54.4,10.9,107.5,10.9,107.5s53.1-24.5,40.8-78.9c-2.1-9.1-2.6-19.2-1.9-29.6c4.4,32.5,14.1,55.5,14.1,55.5
				c1.1,3.4,7.7,15.1,15,27.5c16.4,39.6,37.6,67.2,37.6,67.2s0,0,1.8-10.9c1.8-10.9,12.7-49,15.4-73.5s38.1-45.4,53.5-78
				c15.4-32.7-6.4-25.4-7.3-54.4c-0.9-29,62.6-27.2,100.7-43.5c38.1-16.3,123.4,22.7,140.6,32.7c17.2,10,23.6,87.1,23.6,87.1
				S744.1,526.3,731.4,468.2z"/>
			<path id="XMLID_201_" class="st3" d="M387.3,664.4c0,0-68.3-39-4.9-102.5C382.5,561.9,405.2,625.3,387.3,664.4z"/>
			<path id="XMLID_200_" class="st7" d="M389.5,655.6c0,0-38.1-21.8-31-59.2c-17.5,43.9,27.9,69.8,27.9,69.8c2-4.4,3.5-9.2,4.6-14.1
				C390.5,653.3,390.1,654.5,389.5,655.6z"/>
			<path id="XMLID_199_" class="st9" d="M575.5,666.2"/>
			<path id="XMLID_197_" class="st7" d="M710.4,357.9c-3.8-3.2-6.1-4.8-6.1-4.8S707,355.4,710.4,357.9z"/>
			<path id="XMLID_195_" class="st10" d="M701.6,459.2c0.8,1.3,1.7,2.6,2.5,3.8C704.6,461.4,701.6,459.2,701.6,459.2z"/>
			<path id="XMLID_194_" class="st8" d="M666.9,477.9c-0.2-0.6-0.4-1-0.4-1S666.6,477.3,666.9,477.9z"/>
			<path id="XMLID_183_" class="st10" d="M661.5,412.9c-8.7-3.4-5.9,0.3,2.4,4.8C670.1,417.7,670.2,416.2,661.5,412.9z"/>
			<path id="XMLID_184_" class="st10" d="M661.5,412.9c-8.7-3.4-5.9,0.3,2.4,4.8C670.1,417.7,670.2,416.2,661.5,412.9z"/>
			<path id="XMLID_186_" class="st11" d="M482,349c-26,5.6-47.9,13.2-66.3,22.3c3.4-17.1,0.5-36.5-23.5-48.1
				c-50.3-24.5-111.6,29.9-121.1,70.8c-7.4,31.7-18.9,75.8-9,119.4c9.2,8,28.2,18.8,35.6-19.7c10-51.7,16.3-83.5,43.5-78
				c27.2,5.4-29.9,61.7-12.7,100.7c4.1,9.2,9.1,19.1,14.8,28.2c-2.9-11.8-5-31,17.9-17.3c3.9,2.3,6.9,4.8,9.3,7.3
				c6.2-4.8,21.8-13.3,31.8,13.9c1.5,4.1,1.9,7.8,1.6,11.1c2.7-3.6,5.4-8,8.1-13.2c0,0,7.3,26.3,24.5-37.2s29.9-72.6,47.2-70.8
				c17.2,1.8,48.1-42.6,104.3-31.8c35.6,6.9,65,11.2,75.8,11.2c-8.2-4.6-11.1-8.2-2.4-4.8c8.7,3.3,8.6,4.8,2.4,4.8
				c12.8,7.1,38.6,16.6,54.2,6C698.4,380.8,641.6,314.9,482,349z"/>
			<path id="XMLID_180_" class="st11" d="M563,552.9c0,0-41.8-13.3-63.3,13.1C499.7,566.1,546.5,552.6,563,552.9z"/>
			<path id="XMLID_179_" class="st11" d="M623.5,550.7c0,0,41.8-13.3,63.3,13.1C686.9,563.8,640.1,550.4,623.5,550.7z"/>
			<path id="XMLID_219_" class="st7" d="M574.5,656.1c0,0,33.8,45.7,49,0C624.8,652,618,623.4,574.5,656.1z"/>
			<g id="XMLID_189_">
				<ellipse id="XMLID_185_" class="st11" cx="537.7" cy="604.6" rx="9.9" ry="20.6"/>
				<path id="XMLID_190_" class="st11" d="M557.5,580.7c0,0-41.2-3.3-47.8,33C509.6,613.7,516.2,595.6,557.5,580.7z"/>
			</g>
			<g id="XMLID_204_">
				<ellipse id="XMLID_218_" class="st11" cx="643.7" cy="604.6" rx="9.9" ry="20.6"/>
				<path id="XMLID_216_" class="st11" d="M623.9,580.7c0,0,41.2-3.3,47.8,33C671.8,613.7,665.2,595.6,623.9,580.7z"/>
			</g>
			<path id="XMLID_220_" class="st9" d="M579,653.4c0,0,33.8,45.7,49,0C629.4,649.3,622.6,620.7,579,653.4z"/>
			<path id="XMLID_228_" class="st12" d="M591.7,644.9c-3.8,2.2-8.1,5-12.7,8.4c0,0,28.9,39.1,45.3,8.8c-3.2,1.8-6.9,2.9-10.9,2.9
				C601.9,665.1,592.5,656.2,591.7,644.9z"/>
			<path id="XMLID_227_" class="st7" d="M618.9,722.5c0,0-12.6-24.9-51,1.3c0,0-10.8,9.9-32-4.9C536,718.8,552.2,747.1,618.9,722.5z
				"/>
			<path id="XMLID_235_" class="st10" d="M733.2,458.3l-6.7-2.7c1.3,3.3,2.3,6.4,3.1,9.2L733.2,458.3z"/>
		</g>
	</g>
</g>
</svg>
